<svg xmlns="http://www.w3.org/2000/svg" viewBox="0 0 4181 1320" role="img" aria-label="Ventriq">
<g transform="translate(120,880) scale(1,-1)">
<g fill="#000000">
<path transform="translate(0,0)" d="M253 0 28 700H95L304 37H316L525 700H592L367 0Z"/>
<path transform="translate(610,0)" d="M312 -14Q237 -14 181.5 17.5Q126 49 95.0 106.0Q64 163 64 237V249Q64 324 95.0 380.5Q126 437 180.5 468.5Q235 500 305 500Q373 500 425.5 471.5Q478 443 508.0 389.5Q538 336 538 262V230H124Q127 139 179.5 89.5Q232 40 312 40Q380 40 417.5 71.0Q455 102 475 147L529 123Q514 90 487.5 58.5Q461 27 419.0 6.5Q377 -14 312 -14ZM125 282H477Q473 361 426.0 403.5Q379 446 305 446Q232 446 184.0 403.5Q136 361 125 282Z"/>
<path transform="translate(1198,0)" d="M88 0V486H146V396H158Q176 435 217.0 465.5Q258 496 336 496Q389 496 433.0 474.0Q477 452 503.5 407.5Q530 363 530 296V0H470V292Q470 372 430.0 407.0Q390 442 323 442Q248 442 198.0 392.5Q148 343 148 243V0Z"/>
<path transform="translate(1800,0)" d="M264 0Q225 0 205.5 20.0Q186 40 186 76V432H30V486H186V668H246V486H416V432H246V84Q246 54 276 54H390V0Z"/>
<path transform="translate(2252,0)" d="M88 0V486H146V425H158Q172 458 199.5 473.0Q227 488 276 488H333V432H269Q214 432 181.0 401.0Q148 370 148 304V0Z"/>
<path transform="translate(2611,0)" d="M88 0V486H148V0ZM118 570Q96 570 81.0 585.0Q66 600 66 622Q66 645 81.0 659.5Q96 674 118 674Q141 674 155.5 659.5Q170 645 170 622Q170 600 155.5 585.0Q141 570 118 570Z"/>
<path transform="translate(2837,0)" d="M498 -200V85H486Q473 61 449.5 38.0Q426 15 389.0 0.5Q352 -14 298 -14Q233 -14 179.5 16.5Q126 47 95.0 103.5Q64 160 64 237V249Q64 327 95.5 383.0Q127 439 180.0 469.5Q233 500 298 500Q378 500 422.5 468.5Q467 437 488 397H500V486H558V-200ZM312 40Q395 40 446.5 93.0Q498 146 498 239V247Q498 340 446.5 393.0Q395 446 312 446Q230 446 178.0 393.0Q126 340 126 247V239Q126 146 178.0 93.0Q230 40 312 40Z"/>
</g>
<path fill="#000000" d="M3381 -60 L3941 -140 L3381 -220 Z"/>
</g></svg>